<?xml version="1.0" encoding="UTF-8" standalone="no"?>
<svg
   xmlns:dc="http://purl.org/dc/elements/1.1/"
   xmlns:cc="http://creativecommons.org/ns#"
   xmlns:rdf="http://www.w3.org/1999/02/22-rdf-syntax-ns#"
   xmlns:svg="http://www.w3.org/2000/svg"
   xmlns="http://www.w3.org/2000/svg"
   xmlns:sodipodi="http://sodipodi.sourceforge.net/DTD/sodipodi-0.dtd"
   xmlns:inkscape="http://www.inkscape.org/namespaces/inkscape"
   width="388pt"
   height="553pt"
   viewBox="0 0 388 553"
   version="1.1"
   id="svg2"
   sodipodi:version="0.32"
   inkscape:version="0.46"
   sodipodi:docname="Hand_3.svg"
   inkscape:output_extension="org.inkscape.output.svg.inkscape">
  <metadata
     id="metadata19">
    <rdf:RDF>
      <cc:Work
         rdf:about="">
        <dc:format>image/svg+xml</dc:format>
        <dc:type
           rdf:resource="http://purl.org/dc/dcmitype/StillImage" />
      </cc:Work>
    </rdf:RDF>
  </metadata>
  <defs
     id="defs17">
    <inkscape:perspective
       sodipodi:type="inkscape:persp3d"
       inkscape:vp_x="0 : 345.625 : 1"
       inkscape:vp_y="0 : 1000 : 0"
       inkscape:vp_z="485 : 345.625 : 1"
       inkscape:persp3d-origin="242.5 : 230.41667 : 1"
       id="perspective21" />
  </defs>
  <sodipodi:namedview
     inkscape:window-height="480"
     inkscape:window-width="640"
     inkscape:pageshadow="2"
     inkscape:pageopacity="0.0"
     guidetolerance="10.0"
     gridtolerance="10.0"
     objecttolerance="10.0"
     borderopacity="1.0"
     bordercolor="#666666"
     pagecolor="#ffffff"
     id="base"
     showgrid="false" />
  <path
     fill="#000000"
     d=" M 189.57 4.53 C 199.51 -1.05 213.30 -0.94 221.93 7.08 C 226.62 11.69 229.07 18.02 230.99 24.18 C 235.54 40.72 236.36 57.96 237.19 75.01 C 237.55 90.00 237.74 105.00 237.49 119.99 C 237.29 128.68 237.64 137.38 236.84 146.04 C 235.59 175.28 239.77 204.36 242.73 233.37 C 243.16 237.58 243.92 242.83 248.32 244.73 C 254.68 245.64 260.38 240.73 263.82 235.84 C 277.20 214.22 287.66 190.98 297.72 167.68 C 305.53 148.52 313.19 129.19 318.02 109.02 C 323.69 90.25 332.35 72.11 344.93 56.96 C 348.65 54.25 353.44 53.24 357.97 52.83 C 365.65 52.17 373.21 56.13 377.81 62.17 C 383.73 69.79 386.32 79.48 386.97 88.98 C 387.47 96.09 387.80 103.36 386.24 110.36 C 372.39 157.39 357.06 204.13 336.81 248.84 C 335.49 252.05 333.69 255.08 332.73 258.43 C 330.99 271.97 329.33 285.54 326.44 298.90 C 333.75 296.21 342.31 296.68 348.85 301.11 C 357.57 307.89 363.23 318.79 362.47 329.97 C 361.87 335.79 361.61 342.14 357.97 347.02 C 355.78 350.70 352.30 353.39 350.15 357.08 C 343.08 369.85 333.85 381.35 327.58 394.57 C 325.03 400.38 322.10 406.42 322.49 412.95 C 322.10 434.37 316.43 455.28 309.48 475.42 C 304.87 486.93 302.87 499.53 296.12 510.14 C 291.29 518.63 284.38 525.69 276.90 531.87 C 269.47 538.08 260.95 543.29 251.42 545.45 C 229.74 550.90 207.23 551.13 185.02 551.86 C 178.00 551.68 171.00 552.70 164.00 552.12 C 142.57 549.53 121.66 542.73 102.82 532.17 C 100.39 530.67 97.63 529.45 95.85 527.14 C 78.57 501.43 65.66 472.52 60.05 441.95 C 58.88 435.17 61.82 428.63 64.71 422.68 C 67.88 416.33 72.67 411.02 76.26 404.96 C 75.02 383.14 76.08 361.29 76.63 339.46 C 77.17 309.34 77.14 278.24 66.09 249.73 C 53.97 211.07 41.41 172.50 26.01 135.00 C 22.50 125.91 18.24 117.12 14.99 107.93 C 10.02 94.27 4.09 80.83 1.38 66.47 C 0.13 58.35 0.16 49.58 4.14 42.17 C 8.85 33.93 17.46 27.84 26.99 26.90 C 35.62 25.73 44.01 29.29 51.17 33.77 C 53.12 35.10 55.44 36.20 56.55 38.41 C 76.01 72.95 90.19 110.16 102.41 147.79 C 103.29 150.52 103.94 153.33 105.15 155.95 C 118.86 183.99 128.41 213.80 137.47 243.60 C 139.23 248.56 143.22 253.15 148.34 254.72 C 154.06 256.10 157.38 249.60 157.75 244.85 C 158.27 173.62 155.41 101.52 170.29 31.38 C 172.27 20.17 179.35 9.76 189.57 4.53 Z"
     id="path6" />
  <path
     fill="#fefefe"
     d=" M 191.37 10.42 C 198.10 6.45 206.98 5.00 214.05 8.96 C 220.19 12.06 222.93 18.92 224.92 25.10 C 229.61 41.63 230.29 58.94 231.16 76.00 C 231.61 97.00 231.53 118.01 231.17 139.01 C 228.97 168.40 232.85 197.77 235.94 226.96 C 236.90 233.71 236.53 241.32 241.11 246.89 C 244.46 250.95 250.37 251.89 255.15 250.11 C 261.29 247.88 266.63 243.42 269.85 237.74 C 280.00 221.01 288.54 203.36 296.58 185.53 C 306.01 163.95 315.08 142.13 321.59 119.47 C 326.27 99.30 334.93 79.97 347.43 63.44 C 349.66 59.84 354.25 59.53 358.02 58.89 C 365.47 58.19 372.17 63.21 375.46 69.60 C 381.50 80.94 382.11 94.36 380.86 106.90 C 366.77 155.50 350.78 203.72 329.71 249.79 C 328.48 252.73 326.72 255.56 326.51 258.82 C 324.84 273.22 322.59 287.54 319.87 301.77 C 290.94 317.75 262.33 334.39 234.83 352.75 C 233.46 353.81 231.79 354.36 230.05 354.15 C 215.68 353.11 201.28 352.69 186.92 351.60 C 174.27 350.83 161.59 351.12 148.92 351.16 C 140.68 351.73 132.21 352.38 124.48 355.51 C 109.09 368.29 95.19 382.78 82.01 397.81 C 81.34 378.81 82.11 359.81 82.66 340.81 C 83.28 311.97 83.33 282.41 74.27 254.68 C 69.21 240.25 64.99 225.54 60.15 211.04 C 49.47 178.47 37.73 146.23 24.15 114.76 C 22.22 110.33 20.69 105.74 18.95 101.23 C 14.23 88.41 8.69 75.69 6.87 62.05 C 6.32 56.20 6.52 49.88 9.72 44.75 C 13.88 37.24 22.50 32.57 31.03 32.75 C 37.90 33.19 44.26 36.30 49.86 40.14 C 51.96 41.55 52.63 44.17 53.88 46.24 C 71.18 77.82 84.10 111.56 95.31 145.71 C 96.74 149.92 97.80 154.28 99.60 158.36 C 112.04 184.00 121.15 211.08 129.50 238.27 C 131.00 242.96 131.76 248.09 135.01 251.99 C 138.91 257.04 144.90 261.78 151.67 260.76 C 158.86 259.94 163.02 252.42 163.77 245.87 C 164.00 219.91 163.85 193.95 163.89 167.99 C 164.57 154.67 164.32 141.31 165.12 127.98 C 166.49 95.63 169.66 63.26 176.45 31.56 C 178.15 22.83 183.73 14.96 191.37 10.42 Z"
     id="path8" />
  <path
     fill="#fefefe"
     d=" M 325.81 305.78 C 333.30 301.75 343.95 302.53 349.14 309.86 C 355.43 316.49 357.68 326.16 355.77 335.01 C 355.51 341.63 351.05 347.13 346.12 351.13 C 322.69 366.54 298.25 380.85 271.82 390.51 C 275.30 382.37 278.22 373.46 276.45 364.53 C 275.57 360.93 273.83 357.30 270.55 355.32 C 261.40 355.26 252.19 356.18 243.06 355.04 C 243.62 354.61 244.74 353.75 245.29 353.32 C 271.49 336.42 298.36 320.56 325.81 305.78 Z"
     id="path10" />
  <path
     fill="#fefefe"
     d=" M 129.24 360.39 C 139.23 357.60 149.70 357.41 160.00 357.29 C 183.06 357.29 206.05 359.36 229.08 360.09 C 242.33 361.82 255.68 362.14 269.03 361.71 C 272.46 371.60 269.11 382.43 264.14 391.19 C 257.55 401.37 247.03 408.49 235.91 412.95 C 218.17 419.63 198.74 419.34 180.18 417.09 C 178.20 427.06 174.04 436.43 168.58 444.97 C 170.03 446.01 171.39 447.20 172.99 448.03 C 174.19 447.66 174.67 446.32 175.44 445.45 C 179.89 438.93 182.95 431.56 185.26 424.04 C 197.48 424.76 209.80 424.95 221.96 423.26 C 237.95 420.13 253.88 413.28 264.82 400.84 C 265.87 399.40 267.49 398.67 269.14 398.17 C 294.14 389.92 316.96 376.50 339.38 362.97 C 330.70 377.33 319.89 391.19 316.56 407.99 C 316.59 425.72 313.26 443.30 308.04 460.20 C 305.33 470.38 300.73 479.94 298.24 490.18 C 293.59 506.42 282.96 520.55 269.14 530.15 C 259.27 538.27 246.35 540.96 234.00 542.64 C 212.12 545.58 190.01 545.36 168.00 546.36 C 146.53 544.40 125.53 537.75 106.66 527.32 C 104.41 525.96 101.67 525.09 100.23 522.75 C 84.67 499.46 72.97 473.46 67.05 446.03 C 66.39 442.77 65.28 439.41 66.11 436.08 C 67.49 429.91 70.52 424.24 74.05 419.05 C 88.23 398.04 106.06 379.76 125.02 363.04 C 126.28 361.96 127.53 360.70 129.24 360.39 Z"
     id="path12" />
  <path
     fill="#000000"
     d=" M 206.96 456.13 C 208.63 454.98 210.31 453.85 212.01 452.73 C 218.35 461.36 223.01 471.58 223.74 482.38 C 224.27 490.66 221.79 498.86 217.86 506.08 C 216.10 505.11 214.36 504.11 212.61 503.12 C 216.54 495.65 218.81 487.10 217.23 478.65 C 215.79 470.42 211.79 462.87 206.96 456.13 Z"
     id="path14" />
</svg>
